<svg id="Layer_1" enable-background="new 0 0 512 512" height="512" viewBox="0 0 512 512" width="512" xmlns="http://www.w3.org/2000/svg"><path d="m256 431.809c40.804 0 74-33.196 74-74v-284c-4.077-98.195-143.96-98.119-148 0v284c0 40.804 33.196 74 74 74zm-34-358c1.873-45.117 66.144-45.082 68 0v284c-1.873 45.117-66.144 45.082-68 0zm250 184v-84c-1.873-45.117-66.144-45.082-68 0v184c0 18.748 15.252 34 34 34s34-15.252 34-34c0-11.046 8.954-20 20-20s20 8.954 20 20c-4.066 98.177-143.954 98.136-148 0v-184c4.077-98.195 143.96-98.119 148 0v84c-1.056 26.536-38.953 26.516-40 0zm-398 174c40.804 0 74-33.196 74-74v-54c-4.077-98.195-143.96-98.119-148 0v54c0 40.804 33.196 74 74 74zm-34-128c1.873-45.117 66.144-45.082 68 0v54c-1.873 45.117-66.144 45.082-68 0zm472 188c0 11.046-8.954 20-20 20h-472c-26.536-1.056-26.516-38.953 0-40h472c11.046 0 20 8.954 20 20z"/></svg>